999
PN 2D      DXF 1.1
  0
SECTION
  2
HEADER
  0
ENDSEC
  0
SECTION
  2
TABLES
  0
TABLE
  2
LAYER
 70
9
  0
LAYER
  2
1
 70
0
 62
1
  6
CONTINUOUS
  0
LAYER
  2
2
 70
0
 62
2
  6
CONTINUOUS
  0
LAYER
  2
3
 70
0
 62
3
  6
CONTINUOUS
  0
LAYER
  2
4
 70
0
 62
4
  6
CONTINUOUS
  0
LAYER
  2
5
 70
0
 62
5
  6
CONTINUOUS
  0
LAYER
  2
6
 70
0
 62
6
  6
CONTINUOUS
  0
LAYER
  2
7
 70
0
 62
7
  6
CONTINUOUS
  0
LAYER
  2
8
 70
0
 62
8
  6
CONTINUOUS
  0
ENDTAB
  0
ENDSEC
  0
SECTION
  2
ENTITIES
  0
LINE
  8
3
 10
121.6500
 20
64.0000
 11
100.0000
 21
70.0000
  0
LINE
  8
3
 10
100.0000
 20
70.0000
 11
83.0000
 21
41.5000
  0
LINE
  8
3
 10
83.0000
 20
41.5000
 11
95.0000
 21
38.0000
  0
LINE
  8
3
 10
95.0000
 20
38.0000
 11
117.6500
 21
38.0000
  0
ARC
  8
3
 10
121.6500
 20
38.0001
 40
4.0000
 50
-114.3620
 51
180.0000
  0
LINE
  8
3
 10
120.0000
 20
34.3562
 11
120.0000
 21
16.0000
  0
ARC
  8
3
 10
120.0001
 20
14.0001
 40
2.0000
 50
-192.5896
 51
90.0000
  0
ARC
  8
3
 10
135.0000
 20
135.0000
 40
121.7500
 50
158.0036
 51
261.9963
  0
ARC
  8
3
 10
22.7110
 20
182.5096
 40
2.0000
 50
-30.0001
 51
252.5895
  0
LINE
  8
3
 10
24.4430
 20
181.5096
 11
40.3399
 21
172.3315
  0
ARC
  8
3
 10
44.3206
 20
171.9385
 40
4.0000
 50
-120.0000
 51
174.3620
  0
LINE
  8
3
 10
42.3206
 20
168.4744
 11
30.9956
 21
148.8589
  0
LINE
  8
3
 10
30.9956
 20
148.8589
 11
28.0267
 21
136.7166
  0
LINE
  8
3
 10
28.0267
 20
136.7166
 11
61.2084
 21
137.1891
  0
LINE
  8
3
 10
61.2084
 20
137.1891
 11
66.8372
 21
158.9385
  0
LINE
  8
3
 10
66.8372
 20
158.9385
 11
80.1872
 21
182.0614
  0
LINE
  8
3
 10
80.1872
 20
182.0614
 11
96.2084
 21
197.8108
  0
LINE
  8
3
 10
96.2084
 20
197.8108
 11
80.0267
 21
226.7833
  0
LINE
  8
3
 10
80.0267
 20
226.7833
 11
70.9956
 21
218.1410
  0
LINE
  8
3
 10
70.9956
 20
218.1410
 11
59.6706
 21
198.5255
  0
ARC
  8
3
 10
57.6706
 20
195.0614
 40
4.0000
 50
-234.3621
 51
59.9999
  0
LINE
  8
3
 10
55.3399
 20
198.3123
 11
39.4430
 21
207.4903
  0
ARC
  8
3
 10
37.7110
 20
208.4903
 40
2.0000
 50
47.4105
 51
330.0000
  0
ARC
  8
3
 10
135.0000
 20
135.0000
 40
121.7500
 50
38.0036
 51
141.9963
  0
ARC
  8
3
 10
232.2890
 20
208.4903
 40
2.0000
 50
-150.0001
 51
132.5894
  0
LINE
  8
3
 10
230.5570
 20
207.4903
 11
214.6601
 21
198.3123
  0
ARC
  8
3
 10
212.3294
 20
195.0614
 40
4.0000
 50
-240.0000
 51
54.3620
  0
LINE
  8
3
 10
210.3294
 20
198.5255
 11
199.0044
 21
218.1410
  0
LINE
  8
3
 10
199.0044
 20
218.1410
 11
189.9733
 21
226.7833
  0
LINE
  8
3
 10
189.9733
 20
226.7833
 11
173.7916
 21
197.8108
  0
LINE
  8
3
 10
173.7916
 20
197.8108
 11
189.8128
 21
182.0614
  0
LINE
  8
3
 10
189.8128
 20
182.0614
 11
203.1628
 21
158.9385
  0
LINE
  8
3
 10
203.1628
 20
158.9385
 11
208.7916
 21
137.1891
  0
LINE
  8
3
 10
208.7916
 20
137.1891
 11
241.9733
 21
136.7166
  0
LINE
  8
3
 10
241.9733
 20
136.7166
 11
239.0044
 21
148.8589
  0
LINE
  8
3
 10
239.0044
 20
148.8589
 11
227.6794
 21
168.4744
  0
ARC
  8
3
 10
225.6794
 20
171.9385
 40
4.0000
 50
5.6379
 51
299.9999
  0
LINE
  8
3
 10
229.6601
 20
172.3315
 11
245.5570
 21
181.5096
  0
ARC
  8
3
 10
247.2890
 20
182.5096
 40
2.0000
 50
-72.5896
 51
210.0000
  0
ARC
  8
3
 10
135.0000
 20
135.0000
 40
121.7500
 50
-81.9964
 51
21.9963
  0
ARC
  8
3
 10
150.0000
 20
14.0000
 40
2.0000
 50
-269.9999
 51
12.5896
  0
LINE
  8
3
 10
150.0000
 20
16.0000
 11
150.0000
 21
34.3562
  0
ARC
  8
3
 10
148.3500
 20
38.0001
 40
4.0000
 50
-.0001
 51
294.3619
  0
LINE
  8
3
 10
152.3500
 20
38.0000
 11
175.0000
 21
38.0000
  0
LINE
  8
3
 10
175.0000
 20
38.0000
 11
187.0000
 21
41.5000
  0
LINE
  8
3
 10
187.0000
 20
41.5000
 11
170.0000
 21
70.0000
  0
LINE
  8
3
 10
170.0000
 20
70.0000
 11
148.3500
 21
64.0000
  0
LINE
  8
3
 10
148.3500
 20
64.0000
 11
121.6500
 21
64.0000
  0
CIRCLE
  8
3
 10
135.0000
 20
135.0000
 40
135.0000
  0
CIRCLE
  8
3
 10
41.4693
 20
189.0000
 40
6.0000
  0
CIRCLE
  8
3
 10
135.0000
 20
27.0000
 40
6.0000
  0
CIRCLE
  8
3
 10
228.5307
 20
189.0000
 40
6.0000
  0
ENDSEC
  0
EOF
